<mxfile host="app.diagrams.net" modified="2023-04-13T14:17:16.276Z" agent="Mozilla/5.0 (Windows NT 10.0; Win64; x64) AppleWebKit/537.36 (KHTML, like Gecko) Chrome/111.0.0.0 Safari/537.36" etag="F8WgSPF4af7BrDe3nvmO" version="21.1.7" type="device">
  <diagram id="h_0n3Zkjienf-ujrvG_6" name="Страница 1">
    <mxGraphModel dx="1816" dy="549" grid="1" gridSize="10" guides="1" tooltips="1" connect="1" arrows="1" fold="1" page="1" pageScale="1" pageWidth="827" pageHeight="1169" math="0" shadow="0">
      <root>
        <mxCell id="0" />
        <mxCell id="1" parent="0" />
        <mxCell id="F_xw-o7SSEhGCc8bsex2-1" value="Переход к странице конфигуратора" style="ellipse;shape=umlControl;whiteSpace=wrap;html=1;fontSize=11;" parent="1" vertex="1">
          <mxGeometry x="-575" y="180" width="100" height="114" as="geometry" />
        </mxCell>
        <mxCell id="vv3TgDMPsHulDdS4rFCR-15" style="edgeStyle=orthogonalEdgeStyle;rounded=0;orthogonalLoop=1;jettySize=auto;html=1;fontSize=11;" parent="1" source="F_xw-o7SSEhGCc8bsex2-2" target="F_xw-o7SSEhGCc8bsex2-1" edge="1">
          <mxGeometry relative="1" as="geometry" />
        </mxCell>
        <mxCell id="F_xw-o7SSEhGCc8bsex2-2" value="Пользователь" style="shape=umlActor;verticalLabelPosition=bottom;verticalAlign=top;html=1;fontSize=11;" parent="1" vertex="1">
          <mxGeometry x="-630" y="207" width="30" height="60" as="geometry" />
        </mxCell>
        <mxCell id="F_xw-o7SSEhGCc8bsex2-6" value="Страница справки" style="shape=umlBoundary;whiteSpace=wrap;html=1;fontSize=11;" parent="1" vertex="1">
          <mxGeometry x="-584" y="360" width="100" height="80" as="geometry" />
        </mxCell>
        <mxCell id="F_xw-o7SSEhGCc8bsex2-7" value="Переход к станице справки" style="ellipse;shape=umlControl;whiteSpace=wrap;html=1;fontSize=11;" parent="1" vertex="1">
          <mxGeometry x="-440" y="337" width="100" height="114" as="geometry" />
        </mxCell>
        <mxCell id="F_xw-o7SSEhGCc8bsex2-5" value="Страница конфигура-тора" style="shape=umlBoundary;whiteSpace=wrap;html=1;direction=east;fontSize=11;" parent="1" vertex="1">
          <mxGeometry x="-445" y="197" width="100" height="80" as="geometry" />
        </mxCell>
        <mxCell id="_YdttTHNSesuhG6PUZcD-36" value="" style="edgeStyle=orthogonalEdgeStyle;rounded=0;orthogonalLoop=1;jettySize=auto;html=1;endArrow=classic;endFill=1;fontSize=11;" parent="1" source="F_xw-o7SSEhGCc8bsex2-1" target="F_xw-o7SSEhGCc8bsex2-5" edge="1">
          <mxGeometry relative="1" as="geometry">
            <mxPoint x="-465" y="237" as="sourcePoint" />
            <mxPoint x="-265" y="237" as="targetPoint" />
          </mxGeometry>
        </mxCell>
        <mxCell id="GSHMcF8tK0cThqZM6Yn_-3" value="" style="endArrow=classic;html=1;rounded=0;exitX=0.003;exitY=0.558;exitDx=0;exitDy=0;exitPerimeter=0;" edge="1" parent="1" source="F_xw-o7SSEhGCc8bsex2-7" target="F_xw-o7SSEhGCc8bsex2-6">
          <mxGeometry width="50" height="50" relative="1" as="geometry">
            <mxPoint x="-460" y="360" as="sourcePoint" />
            <mxPoint x="-410" y="310" as="targetPoint" />
          </mxGeometry>
        </mxCell>
        <mxCell id="GSHMcF8tK0cThqZM6Yn_-4" value="" style="endArrow=classic;html=1;rounded=0;exitX=0.593;exitY=-0.009;exitDx=0;exitDy=0;exitPerimeter=0;" edge="1" parent="1" source="F_xw-o7SSEhGCc8bsex2-6" target="F_xw-o7SSEhGCc8bsex2-1">
          <mxGeometry width="50" height="50" relative="1" as="geometry">
            <mxPoint x="-430" y="411" as="sourcePoint" />
            <mxPoint x="-480" y="410" as="targetPoint" />
          </mxGeometry>
        </mxCell>
        <mxCell id="GSHMcF8tK0cThqZM6Yn_-5" value="Переход к станице комплектующего" style="ellipse;shape=umlControl;whiteSpace=wrap;html=1;fontSize=11;" vertex="1" parent="1">
          <mxGeometry x="-437" y="40" width="100" height="114" as="geometry" />
        </mxCell>
        <mxCell id="GSHMcF8tK0cThqZM6Yn_-12" value="База данных" style="ellipse;shape=umlEntity;whiteSpace=wrap;html=1;fontSize=11;" vertex="1" parent="1">
          <mxGeometry x="-301.8" y="197" width="80" height="80" as="geometry" />
        </mxCell>
        <mxCell id="GSHMcF8tK0cThqZM6Yn_-22" style="edgeStyle=orthogonalEdgeStyle;rounded=0;orthogonalLoop=1;jettySize=auto;html=1;startArrow=classic;startFill=1;fontSize=11;entryX=0;entryY=0.5;entryDx=0;entryDy=0;exitX=1.008;exitY=0.563;exitDx=0;exitDy=0;exitPerimeter=0;" edge="1" parent="1" target="GSHMcF8tK0cThqZM6Yn_-12">
          <mxGeometry relative="1" as="geometry">
            <Array as="points">
              <mxPoint x="-325.8" y="237" />
            </Array>
            <mxPoint x="-345.00000000000006" y="237.18200000000002" as="sourcePoint" />
            <mxPoint x="-180.8" y="496" as="targetPoint" />
          </mxGeometry>
        </mxCell>
        <mxCell id="GSHMcF8tK0cThqZM6Yn_-32" value="" style="endArrow=classic;html=1;rounded=0;exitX=0.586;exitY=1.011;exitDx=0;exitDy=0;exitPerimeter=0;entryX=0.536;entryY=0.114;entryDx=0;entryDy=0;entryPerimeter=0;" edge="1" parent="1" source="F_xw-o7SSEhGCc8bsex2-5" target="F_xw-o7SSEhGCc8bsex2-7">
          <mxGeometry width="50" height="50" relative="1" as="geometry">
            <mxPoint x="-310" y="350" as="sourcePoint" />
            <mxPoint x="-260" y="300" as="targetPoint" />
          </mxGeometry>
        </mxCell>
        <mxCell id="GSHMcF8tK0cThqZM6Yn_-33" value="" style="endArrow=classic;html=1;rounded=0;exitX=0.572;exitY=0.008;exitDx=0;exitDy=0;exitPerimeter=0;" edge="1" parent="1" source="F_xw-o7SSEhGCc8bsex2-5" target="GSHMcF8tK0cThqZM6Yn_-5">
          <mxGeometry width="50" height="50" relative="1" as="geometry">
            <mxPoint x="-300" y="180" as="sourcePoint" />
            <mxPoint x="-270" y="130" as="targetPoint" />
          </mxGeometry>
        </mxCell>
        <mxCell id="GSHMcF8tK0cThqZM6Yn_-34" value="Страница комплек-тующего" style="shape=umlBoundary;whiteSpace=wrap;html=1;fontSize=11;" vertex="1" parent="1">
          <mxGeometry x="-584" y="69" width="100" height="80" as="geometry" />
        </mxCell>
        <mxCell id="GSHMcF8tK0cThqZM6Yn_-35" value="" style="endArrow=classic;html=1;rounded=0;entryX=1.012;entryY=0.498;entryDx=0;entryDy=0;entryPerimeter=0;exitX=-0.008;exitY=0.6;exitDx=0;exitDy=0;exitPerimeter=0;" edge="1" parent="1" source="GSHMcF8tK0cThqZM6Yn_-5" target="GSHMcF8tK0cThqZM6Yn_-34">
          <mxGeometry width="50" height="50" relative="1" as="geometry">
            <mxPoint x="-440" y="100" as="sourcePoint" />
            <mxPoint x="-420" y="160" as="targetPoint" />
          </mxGeometry>
        </mxCell>
        <mxCell id="GSHMcF8tK0cThqZM6Yn_-36" value="" style="endArrow=classic;html=1;rounded=0;exitX=0.59;exitY=0.99;exitDx=0;exitDy=0;exitPerimeter=0;entryX=0.503;entryY=0.128;entryDx=0;entryDy=0;entryPerimeter=0;" edge="1" parent="1" source="GSHMcF8tK0cThqZM6Yn_-34" target="F_xw-o7SSEhGCc8bsex2-1">
          <mxGeometry width="50" height="50" relative="1" as="geometry">
            <mxPoint x="-480" y="200" as="sourcePoint" />
            <mxPoint x="-430" y="150" as="targetPoint" />
          </mxGeometry>
        </mxCell>
      </root>
    </mxGraphModel>
  </diagram>
</mxfile>
